<mxfile host="Electron" modified="2024-04-17T06:23:45.289Z" agent="Mozilla/5.0 (Windows NT 10.0; Win64; x64) AppleWebKit/537.36 (KHTML, like Gecko) draw.io/24.1.0 Chrome/120.0.6099.109 Electron/28.1.0 Safari/537.36" etag="62T2fvFDEoOyqH1vqQ3g" version="24.1.0" type="device">
  <diagram name="Page-1" id="20Axum4HzrhDgdSIYCOu">
    <mxGraphModel dx="1160" dy="867" grid="1" gridSize="10" guides="1" tooltips="1" connect="1" arrows="1" fold="1" page="1" pageScale="1" pageWidth="1700" pageHeight="1100" math="0" shadow="0">
      <root>
        <mxCell id="0" />
        <mxCell id="1" parent="0" />
        <mxCell id="hgy2ssHWlow0Sl3uejmk-1" value="" style="whiteSpace=wrap;html=1;sketch=1;curveFitting=1;jiggle=2;strokeColor=default;fillColor=default;glass=0;shadow=1;" vertex="1" parent="1">
          <mxGeometry x="530" y="420" width="1080" height="720" as="geometry" />
        </mxCell>
        <mxCell id="hgy2ssHWlow0Sl3uejmk-2" value="" style="whiteSpace=wrap;html=1;sketch=1;curveFitting=1;jiggle=2;strokeColor=default;fillColor=default;glass=0;shadow=1;" vertex="1" parent="1">
          <mxGeometry x="530" y="420" width="80" height="720" as="geometry" />
        </mxCell>
        <mxCell id="hgy2ssHWlow0Sl3uejmk-3" value="" style="whiteSpace=wrap;html=1;sketch=1;hachureGap=4;jiggle=2;curveFitting=1;fontFamily=Architects Daughter;fontSource=https%3A%2F%2Ffonts.googleapis.com%2Fcss%3Ffamily%3DArchitects%2BDaughter;" vertex="1" parent="1">
          <mxGeometry x="540" y="430" width="60" height="60" as="geometry" />
        </mxCell>
        <mxCell id="hgy2ssHWlow0Sl3uejmk-4" value="" style="whiteSpace=wrap;html=1;sketch=1;hachureGap=4;jiggle=2;curveFitting=1;fontFamily=Architects Daughter;fontSource=https%3A%2F%2Ffonts.googleapis.com%2Fcss%3Ffamily%3DArchitects%2BDaughter;" vertex="1" parent="1">
          <mxGeometry x="540" y="510" width="60" height="60" as="geometry" />
        </mxCell>
        <mxCell id="hgy2ssHWlow0Sl3uejmk-5" value="" style="whiteSpace=wrap;html=1;sketch=1;hachureGap=4;jiggle=2;curveFitting=1;fontFamily=Architects Daughter;fontSource=https%3A%2F%2Ffonts.googleapis.com%2Fcss%3Ffamily%3DArchitects%2BDaughter;" vertex="1" parent="1">
          <mxGeometry x="540" y="590" width="60" height="60" as="geometry" />
        </mxCell>
        <mxCell id="hgy2ssHWlow0Sl3uejmk-6" value="" style="whiteSpace=wrap;html=1;sketch=1;hachureGap=4;jiggle=2;curveFitting=1;fontFamily=Architects Daughter;fontSource=https%3A%2F%2Ffonts.googleapis.com%2Fcss%3Ffamily%3DArchitects%2BDaughter;" vertex="1" parent="1">
          <mxGeometry x="540" y="1070" width="60" height="60" as="geometry" />
        </mxCell>
        <mxCell id="hgy2ssHWlow0Sl3uejmk-7" value="" style="whiteSpace=wrap;html=1;sketch=1;hachureGap=4;jiggle=2;curveFitting=1;fontFamily=Architects Daughter;fontSource=https%3A%2F%2Ffonts.googleapis.com%2Fcss%3Ffamily%3DArchitects%2BDaughter;" vertex="1" parent="1">
          <mxGeometry x="630" y="440" width="580" height="400" as="geometry" />
        </mxCell>
        <mxCell id="hgy2ssHWlow0Sl3uejmk-8" value="" style="whiteSpace=wrap;html=1;sketch=1;hachureGap=4;jiggle=2;curveFitting=1;fontFamily=Architects Daughter;fontSource=https%3A%2F%2Ffonts.googleapis.com%2Fcss%3Ffamily%3DArchitects%2BDaughter;" vertex="1" parent="1">
          <mxGeometry x="1230" y="440" width="360" height="230" as="geometry" />
        </mxCell>
        <mxCell id="hgy2ssHWlow0Sl3uejmk-9" value="" style="whiteSpace=wrap;html=1;sketch=1;hachureGap=4;jiggle=2;curveFitting=1;fontFamily=Architects Daughter;fontSource=https%3A%2F%2Ffonts.googleapis.com%2Fcss%3Ffamily%3DArchitects%2BDaughter;" vertex="1" parent="1">
          <mxGeometry x="1230" y="690" width="360" height="430" as="geometry" />
        </mxCell>
        <mxCell id="hgy2ssHWlow0Sl3uejmk-10" value="" style="whiteSpace=wrap;html=1;sketch=1;hachureGap=4;jiggle=2;curveFitting=1;fontFamily=Architects Daughter;fontSource=https%3A%2F%2Ffonts.googleapis.com%2Fcss%3Ffamily%3DArchitects%2BDaughter;" vertex="1" parent="1">
          <mxGeometry x="630" y="860" width="580" height="260" as="geometry" />
        </mxCell>
        <mxCell id="hgy2ssHWlow0Sl3uejmk-11" value="" style="edgeStyle=none;orthogonalLoop=1;jettySize=auto;html=1;rounded=0;sketch=1;hachureGap=4;jiggle=2;curveFitting=1;fontFamily=Architects Daughter;fontSource=https%3A%2F%2Ffonts.googleapis.com%2Fcss%3Ffamily%3DArchitects%2BDaughter;exitX=0;exitY=1;exitDx=0;exitDy=0;entryX=1;entryY=0.25;entryDx=0;entryDy=0;" edge="1" parent="1" source="hgy2ssHWlow0Sl3uejmk-7" target="hgy2ssHWlow0Sl3uejmk-7">
          <mxGeometry width="80" relative="1" as="geometry">
            <mxPoint x="1080" y="790" as="sourcePoint" />
            <mxPoint x="1160" y="790" as="targetPoint" />
            <Array as="points">
              <mxPoint x="870" y="770" />
              <mxPoint x="1070" y="660" />
            </Array>
          </mxGeometry>
        </mxCell>
        <mxCell id="hgy2ssHWlow0Sl3uejmk-13" value="" style="whiteSpace=wrap;html=1;sketch=1;hachureGap=4;jiggle=2;curveFitting=1;fontFamily=Architects Daughter;fontSource=https%3A%2F%2Ffonts.googleapis.com%2Fcss%3Ffamily%3DArchitects%2BDaughter;" vertex="1" parent="1">
          <mxGeometry x="1250" y="460" width="150" height="120" as="geometry" />
        </mxCell>
        <mxCell id="hgy2ssHWlow0Sl3uejmk-14" value="" style="whiteSpace=wrap;html=1;sketch=1;hachureGap=4;jiggle=2;curveFitting=1;fontFamily=Architects Daughter;fontSource=https%3A%2F%2Ffonts.googleapis.com%2Fcss%3Ffamily%3DArchitects%2BDaughter;" vertex="1" parent="1">
          <mxGeometry x="1250" y="600" width="320" height="50" as="geometry" />
        </mxCell>
        <mxCell id="hgy2ssHWlow0Sl3uejmk-15" value="" style="whiteSpace=wrap;html=1;sketch=1;hachureGap=4;jiggle=2;curveFitting=1;fontFamily=Architects Daughter;fontSource=https%3A%2F%2Ffonts.googleapis.com%2Fcss%3Ffamily%3DArchitects%2BDaughter;" vertex="1" parent="1">
          <mxGeometry x="1420" y="460" width="150" height="120" as="geometry" />
        </mxCell>
        <mxCell id="hgy2ssHWlow0Sl3uejmk-16" value="" style="whiteSpace=wrap;html=1;sketch=1;hachureGap=4;jiggle=2;curveFitting=1;fontFamily=Architects Daughter;fontSource=https%3A%2F%2Ffonts.googleapis.com%2Fcss%3Ffamily%3DArchitects%2BDaughter;" vertex="1" parent="1">
          <mxGeometry x="1250" y="710" width="150" height="330" as="geometry" />
        </mxCell>
        <mxCell id="hgy2ssHWlow0Sl3uejmk-17" value="" style="whiteSpace=wrap;html=1;sketch=1;hachureGap=4;jiggle=2;curveFitting=1;fontFamily=Architects Daughter;fontSource=https%3A%2F%2Ffonts.googleapis.com%2Fcss%3Ffamily%3DArchitects%2BDaughter;" vertex="1" parent="1">
          <mxGeometry x="1430" y="710" width="140" height="330" as="geometry" />
        </mxCell>
        <mxCell id="hgy2ssHWlow0Sl3uejmk-18" value="" style="whiteSpace=wrap;html=1;sketch=1;hachureGap=4;jiggle=2;curveFitting=1;fontFamily=Architects Daughter;fontSource=https%3A%2F%2Ffonts.googleapis.com%2Fcss%3Ffamily%3DArchitects%2BDaughter;" vertex="1" parent="1">
          <mxGeometry x="1250" y="1050" width="150" height="60" as="geometry" />
        </mxCell>
        <mxCell id="hgy2ssHWlow0Sl3uejmk-19" value="" style="whiteSpace=wrap;html=1;sketch=1;hachureGap=4;jiggle=2;curveFitting=1;fontFamily=Architects Daughter;fontSource=https%3A%2F%2Ffonts.googleapis.com%2Fcss%3Ffamily%3DArchitects%2BDaughter;" vertex="1" parent="1">
          <mxGeometry x="1430" y="1050" width="140" height="60" as="geometry" />
        </mxCell>
      </root>
    </mxGraphModel>
  </diagram>
</mxfile>
